# xmcd
#
# Track frame offsets:
#	150
#	18476
#	39921
#	59272
#	68044
#	90203
#	105971
#	126569
#	154994
#	164300
#	192060
#	205854
#
# Disc length: 2980 seconds
#
# Revision: 1
# Processed by: cddbd v1.5.2PL0 Copyright (c) Steve Scherf et al.
# Submitted via: EasyCDDAExtractor 2010.6.0.0
#
DISCID=930ba20c
DTITLE=Various Artist - All Roads Lead Home (Carolina Music Ways)
DYEAR=2008
DGENRE=Blues
TTITLE0=Twin City Choristers, The - Amen (gospel)
TTITLE1=Rex McGee - E Flat (old-time)
TTITLE2=Kirk Sutphin - Honeysuckle (old-time)
TTITLE3=Gianinni Brass - Mit Freuden Zart (Moravian)
TTITLE4=Matt Kendrick - Outa Focus at In Focus (jazz)
TTITLE5=Wicker and Jones - Piedmont Girl (blues)
TTITLE6=Bishop John Heath - Put Your Hand in Mine (gospel)
TTITLE7=Big Ron Hunter - Going for Myself (blues)
TTITLE8=Moravian Church Choir - Sing Halleluiah, Praise the Lord (Moravian)
TTITLE9=Joe Robinson - Theme for Alfreda (jazz)
TTITLE10=R. G. Absher - Tom Dooley (bluegrass)
TTITLE11=Dan River Boys - Using My Bible For a Roadmap (bluegrass)
EXTD=
EXTT0=
EXTT1=
EXTT2=
EXTT3=
EXTT4=
EXTT5=
EXTT6=
EXTT7=
EXTT8=
EXTT9=
EXTT10=
EXTT11=
PLAYORDER=
